<svg xmlns="http://www.w3.org/2000/svg" viewBox="0 0 16 16">
  <path style="line-height:normal;text-indent:0;text-align:start;text-decoration-line:none;text-decoration-style:solid;text-decoration-color:#000;text-transform:none;block-progression:tb;white-space:normal;isolation:auto;mix-blend-mode:normal;solid-color:#000;solid-opacity:1" d="M4 2a2 2 0 00-1.4 3.3L5.3 8l-2.7 2.7a2 2 0 000 2.7c.7.8 2 .8 2.7 0L8 10.7l2.7 2.7c.7.8 2 .8 2.7 0 .8-.7.8-2 0-2.7L10.7 8l2.7-2.7c.8-.7.8-2 0-2.7a2 2 0 00-2.7 0L8 5.3 5.3 2.6A2 2 0 003.9 2z" color="#000" font-weight="400" font-family="sans-serif" overflow="visible"/>
</svg>
