<svg xmlns="http://www.w3.org/2000/svg" viewBox="0 0 32 32">
  <path style="line-height:normal;text-indent:0;text-align:start;text-decoration-line:none;text-decoration-style:solid;text-decoration-color:#000;text-transform:none;block-progression:tb;white-space:normal;isolation:auto;mix-blend-mode:normal;solid-color:#000;solid-opacity:1" d="M15.8 3.4c-.3 0-.5.2-.6.5 0 0 0 .9-.2 1.7a16.6 16.6 0 01-.3 1.5c-1 .1-1.9.5-2.7 1l-.3-.3a36.4 36.4 0 01-2.2-2.2.5.5 0 00-.7 0L6 8.6c-.2.1-.2.4 0 .6a48.3 48.3 0 002.3 2.4l-.7 1.6h-.3a36.1 36.1 0 01-3.1 0 .5.5 0 00-.5.5v4.1c0 .3.2.6.5.5H6a16.5 16.5 0 011.5.1A9 9 0 008.6 21l-.1.2-.8 1-1.2 1.5a.5.5 0 000 .7l3.4 2.5c.2.2.5.1.7-.1l1-1.4a16.6 16.6 0 011-1.2l.2.1c.9.4 1.9.5 2.8.6l.1.3a36.5 36.5 0 01.8 3l.2.3c.2 0 .3.1.4 0l4-1c.3-.1.4-.4.4-.7l-.5-1.7a16.7 16.7 0 01-.4-1.5 9 9 0 002.1-1.8l.3.1a36.6 36.6 0 012.9 1.3.5.5 0 00.7-.2l1.6-3.9c0-.2 0-.5-.3-.6l-1.7-.7a16.6 16.6 0 01-1.3-.7c.1-1 0-2-.1-3l.2-.1a36.6 36.6 0 012.7-1.5.5.5 0 00.2-.7l-2-3.6a.5.5 0 00-.7-.2l-1.6 1a16.7 16.7 0 01-1.3.6 8.9 8.9 0 00-2.5-1.7v-.3a36.5 36.5 0 01.5-3 .5.5 0 00-.4-.7l-4.1-.5zm3.8 4.3v.1h0zm-7.8.4h-.2.2zm4.2 4.4c.5 0 .9 0 1.3.3a3.4 3.4 0 012 2.2 3.5 3.5 0 01-.5 3 3.4 3.4 0 01-2.8 1.4 3.4 3.4 0 01-2.7-1.3 3.4 3.4 0 01-.6-3 3.5 3.5 0 01.8-1.6l1.1-.7c.4-.2 1-.3 1.4-.3zm-8.6.9v0zm17.3.4v0zm-16 7.3v0zm14.3.5l-.1.1h.1zM15.8 25h0z" color="#000" font-weight="400" font-family="sans-serif" overflow="visible"/>
</svg>
