<svg xmlns="http://www.w3.org/2000/svg" viewBox="0 0 32 32">
  <path style="line-height:normal;text-indent:0;text-align:start;text-decoration-line:none;text-decoration-style:solid;text-decoration-color:#000;text-transform:none;block-progression:tb;white-space:normal;isolation:auto;mix-blend-mode:normal;solid-color:#000;solid-opacity:1" d="M13.6 5h-.2L1.6 13.4c-.4.3-.6.6-.6 1s.2.8.6 1l11.8 8.4c.3.3.8 0 .8-.4v-5.3c4 0 6.3 0 8.2.7 2 .9 3.9 2.6 7.8 6 .3.4 1 0 .8-.5-1.9-5.5-2.8-8.4-5-10.2-2.3-1.8-5.6-2.3-11.8-3.3V5.4c0-.2-.3-.5-.6-.5z" color="#000" font-weight="400" font-family="sans-serif" overflow="visible"/>
</svg>
