<?xml version="1.0" encoding="UTF-8" standalone="no"?>
<!-- Created with Inkscape (http://www.inkscape.org/) -->
<svg xmlns:rdf="http://www.w3.org/1999/02/22-rdf-syntax-ns#" xmlns="http://www.w3.org/2000/svg" version="1.1" xmlns:cc="http://creativecommons.org/ns#" xmlns:dc="http://purl.org/dc/elements/1.1/" viewBox="0 0 50 50">
  <metadata>
    <rdf:RDF>
      <cc:Work rdf:about="">
        <dc:format>image/svg+xml</dc:format>
        <dc:type rdf:resource="http://purl.org/dc/dcmitype/StillImage"/>
        <dc:title/>
      </cc:Work>
    </rdf:RDF>
  </metadata>
  <g transform="translate(0,-1002.3622)">
    <path fill="#000000" d="M25,5c-9.912,0-18.135,7.225-19.719,16.688l5.5628-1.594c2.032-5.876,7.589-10.094,14.156-10.094,4.222,0,7.995,1.784,10.719,4.594l-4.344,1.218,8.719,4.907,4.906-8.719-3.969,1.094c-3.644-4.9012-9.454-8.094-16.031-8.094zm19.562,24.188l-5.718,1.593c-2.262,5.418-7.606,9.219-13.844,9.219-3.847,0-7.317-1.491-9.969-3.875l3.969-1.125-8.719-4.906-4.906,8.718,4.1562-1.156c3.6678,4.479,9.2288,7.344,15.469,7.344,9.609,0,17.637-6.777,19.562-15.812z" transform="translate(0,1002.3622)"/>
  </g>
</svg>