<?xml version="1.0" encoding="UTF-8" standalone="no"?>
<!-- Created with Inkscape (http://www.inkscape.org/) -->

<svg
   xmlns:dc="http://purl.org/dc/elements/1.1/"
   xmlns:cc="http://creativecommons.org/ns#"
   xmlns:rdf="http://www.w3.org/1999/02/22-rdf-syntax-ns#"
   xmlns:svg="http://www.w3.org/2000/svg"
   xmlns="http://www.w3.org/2000/svg"
   xmlns:sodipodi="http://sodipodi.sourceforge.net/DTD/sodipodi-0.dtd"
   xmlns:inkscape="http://www.inkscape.org/namespaces/inkscape"
   width="32"
   height="32"
   viewBox="0 0 32 32.000001"
   id="svg2"
   version="1.1"
   inkscape:version="0.91 r13725"
   sodipodi:docname="icon-options2.svg">
  <defs
     id="defs4" />
  <sodipodi:namedview
     id="base"
     pagecolor="#ffffff"
     bordercolor="#666666"
     borderopacity="1.0"
     inkscape:pageopacity="0.0"
     inkscape:pageshadow="2"
     inkscape:zoom="18.73833"
     inkscape:cx="5.7500174"
     inkscape:cy="13.673556"
     inkscape:document-units="px"
     inkscape:current-layer="svg2"
     showgrid="true"
     inkscape:window-width="1920"
     inkscape:window-height="1017"
     inkscape:window-x="1912"
     inkscape:window-y="-8"
     inkscape:window-maximized="1"
     units="px"
     inkscape:snap-grids="false">
    <inkscape:grid
       type="xygrid"
       id="grid4136" />
  </sodipodi:namedview>
  <metadata
     id="metadata7">
    <rdf:RDF>
      <cc:Work
         rdf:about="">
        <dc:format>image/svg+xml</dc:format>
        <dc:type
           rdf:resource="http://purl.org/dc/dcmitype/StillImage" />
        <dc:title></dc:title>
      </cc:Work>
    </rdf:RDF>
  </metadata>
  <g
     inkscape:label="Layer 1"
     inkscape:groupmode="layer"
     id="layer1" />
  <path
     style="color:#000000;font-style:normal;font-variant:normal;font-weight:normal;font-stretch:normal;font-size:medium;line-height:normal;font-family:sans-serif;text-indent:0;text-align:start;text-decoration:none;text-decoration-line:none;text-decoration-style:solid;text-decoration-color:#000000;letter-spacing:normal;word-spacing:normal;text-transform:none;direction:ltr;block-progression:tb;writing-mode:lr-tb;baseline-shift:baseline;text-anchor:start;white-space:normal;clip-rule:nonzero;display:inline;overflow:visible;visibility:visible;opacity:1;isolation:auto;mix-blend-mode:normal;color-interpolation:sRGB;color-interpolation-filters:linearRGB;solid-color:#000000;solid-opacity:1;fill:#000000;fill-opacity:1;fill-rule:nonzero;stroke:none;stroke-width:1;stroke-linecap:round;stroke-linejoin:round;stroke-miterlimit:4;stroke-dasharray:none;stroke-dashoffset:0;stroke-opacity:1;color-rendering:auto;image-rendering:auto;shape-rendering:auto;text-rendering:auto;enable-background:accumulate"
     d="M 15.78125 3.4179688 C 15.502855 3.3835847 15.250859 3.5841921 15.222656 3.8632812 C 15.222656 3.8632812 15.136083 4.7522284 15.011719 5.6367188 C 14.949539 6.0789643 14.876871 6.5195735 14.806641 6.8339844 C 14.779654 6.9548176 14.754048 7.0340177 14.732422 7.0996094 C 14.72396 7.0990859 14.713024 7.0906434 14.705078 7.0917969 C 13.718545 7.234014 12.8092 7.5883154 11.953125 8.0234375 C 11.890726 7.9690197 11.826745 7.9140029 11.734375 7.8261719 C 11.485446 7.5894739 11.155492 7.2578655 10.830078 6.9238281 C 10.179251 6.2557534 9.5429687 5.5761719 9.5429688 5.5761719 C 9.4506951 5.4776119 9.3224882 5.4205527 9.1875 5.4179688 C 9.0505645 5.4153423 8.918545 5.4689972 8.8222656 5.5664062 L 5.9179688 8.5136719 C 5.7212185 8.7136102 5.7273888 9.0362468 5.9316406 9.2285156 C 5.9316406 9.2285156 6.5829666 9.8375129 7.2089844 10.474609 C 7.5219933 10.793158 7.8284652 11.120074 8.0351562 11.367188 C 8.1187143 11.467086 8.1704423 11.540314 8.2089844 11.597656 C 7.9314772 12.124368 7.7048913 12.671925 7.5234375 13.230469 C 7.4408335 13.236169 7.3578835 13.242744 7.2304688 13.246094 C 6.8870869 13.255094 6.4194341 13.2556 5.953125 13.25 C 5.020509 13.23877 4.0898438 13.208984 4.0898438 13.208984 C 3.9548982 13.204684 3.8237423 13.253928 3.7265625 13.347656 C 3.6279745 13.442726 3.5713228 13.575933 3.5722656 13.712891 L 3.6074219 17.849609 C 3.6099619 18.130108 3.8426733 18.354467 4.1230469 18.345703 C 4.1230469 18.345703 5.0150401 18.313412 5.9082031 18.320312 C 6.3547848 18.323712 6.802127 18.338937 7.1230469 18.367188 C 7.2425124 18.377701 7.3190146 18.39177 7.3867188 18.404297 C 7.6513542 19.347114 8.1043023 20.191394 8.6328125 20.974609 C 8.5864725 21.043229 8.5406341 21.11432 8.4648438 21.216797 C 8.2605803 21.492965 7.9711479 21.860567 7.6796875 22.224609 C 7.096773 22.952695 6.5019531 23.667969 6.5019531 23.667969 C 6.4154981 23.771672 6.3746194 23.906732 6.3886719 24.041016 C 6.4029109 24.177232 6.4715611 24.301206 6.5800781 24.384766 L 9.8632812 26.904297 C 10.085907 27.074954 10.404638 27.029092 10.570312 26.802734 C 10.570312 26.802734 11.095171 26.080515 11.650391 25.380859 C 11.928 25.03103 12.21379 24.686701 12.433594 24.451172 C 12.535786 24.341668 12.620668 24.263323 12.671875 24.220703 C 12.699914 24.275612 12.730341 24.313557 12.767578 24.328125 C 13.695438 24.692195 14.661837 24.83394 15.621094 24.878906 C 15.648424 24.957066 15.676011 25.036196 15.712891 25.158203 C 15.812271 25.487013 15.934999 25.939388 16.052734 26.390625 C 16.288208 27.293094 16.505859 28.197266 16.505859 28.197266 C 16.537349 28.328557 16.620258 28.442744 16.736328 28.511719 C 16.854058 28.581699 16.995107 28.59958 17.126953 28.5625 L 21.109375 27.435547 C 21.379243 27.359017 21.533672 27.076699 21.451172 26.808594 C 21.451172 26.808594 21.186258 25.957025 20.957031 25.09375 C 20.842416 24.662113 20.737195 24.225189 20.679688 23.908203 C 20.658111 23.789275 20.650278 23.711256 20.644531 23.642578 C 21.451291 23.153977 22.129981 22.523496 22.732422 21.837891 C 22.810542 21.865321 22.89142 21.892117 23.009766 21.939453 C 23.328687 22.067048 23.757564 22.25369 24.183594 22.443359 C 25.035655 22.82269 25.878906 23.216797 25.878906 23.216797 C 26.001133 23.274147 26.141241 23.280052 26.267578 23.232422 C 26.395736 23.184122 26.49745 23.085133 26.550781 22.958984 L 28.15625 19.146484 C 28.264901 18.88787 28.139866 18.589217 27.878906 18.486328 C 27.878906 18.486328 27.048008 18.162482 26.230469 17.802734 C 25.821699 17.622862 25.416362 17.432223 25.132812 17.279297 C 25.012751 17.214548 24.929556 17.162178 24.873047 17.123047 C 24.893327 17.097304 24.918748 17.072135 24.921875 17.046875 C 25.04532 16.057818 24.94352 15.087094 24.75 14.146484 C 24.81897 14.100684 24.888943 14.052227 24.998047 13.986328 C 25.292093 13.808766 25.699284 13.579126 26.107422 13.353516 C 26.923692 12.902292 27.746094 12.46875 27.746094 12.46875 C 27.865526 12.40579 27.95404 12.295532 27.992188 12.166016 C 28.030897 12.034643 28.015776 11.893983 27.947266 11.775391 L 25.871094 8.1953125 C 25.730233 7.9527342 25.417129 7.8733265 25.177734 8.0195312 C 25.177734 8.0195312 24.418508 8.4863931 23.638672 8.921875 C 23.248755 9.1396179 22.853484 9.3503056 22.560547 9.484375 C 22.439384 9.5398322 22.350592 9.5719655 22.285156 9.59375 C 22.27694 9.5693618 22.272931 9.5381601 22.257812 9.5234375 C 21.544436 8.8273288 20.710092 8.3225066 19.84375 7.9082031 C 19.84895 7.8255711 19.853748 7.7400311 19.867188 7.6132812 C 19.903437 7.2717007 19.966279 6.8091721 20.033203 6.3476562 C 20.167045 5.4246253 20.318359 4.5058593 20.318359 4.5058594 C 20.340379 4.3726548 20.308646 4.2356212 20.228516 4.1269531 C 20.147246 4.0167141 20.02261 3.9448221 19.886719 3.9277344 L 15.78125 3.4179688 z M 19.552734 7.7128906 C 19.551634 7.7124459 19.655398 7.7676541 19.689453 7.7988281 C 19.692853 7.8019781 19.694066 7.8054938 19.697266 7.8085938 C 19.645296 7.7849807 19.605082 7.7354846 19.552734 7.7128906 z M 11.773438 8.0800781 C 11.778037 8.0792624 11.780736 8.0807412 11.785156 8.0800781 C 11.734786 8.1069351 11.670887 8.1069866 11.621094 8.1347656 C 11.620094 8.1353384 11.727974 8.0881191 11.773438 8.0800781 z M 16 12.5 C 16.452312 12.5 16.881765 12.59245 17.279297 12.75 C 17.280284 12.74583 17.276477 12.734846 17.277344 12.730469 C 17.844208 12.953554 18.358672 13.326102 18.755859 13.84375 C 19.031202 14.2026 19.218937 14.59847 19.335938 15.009766 C 19.33953 15.008152 19.345939 14.999847 19.349609 14.998047 C 19.518949 15.589102 19.53728 16.231917 19.363281 16.867188 C 19.243795 17.303434 19.040171 17.693366 18.783203 18.035156 C 18.78666 18.037044 18.797128 18.037226 18.800781 18.039062 C 18.430951 18.532402 17.927993 18.934897 17.314453 19.179688 C 16.894343 19.347303 16.460815 19.420893 16.033203 19.421875 C 16.033681 19.425095 16.038476 19.43224 16.039062 19.435547 C 15.453572 19.437548 14.860991 19.296035 14.316406 18.986328 C 13.923227 18.762726 13.595799 18.470191 13.328125 18.136719 C 13.325527 18.13951 13.322909 18.149362 13.320312 18.152344 C 12.928594 17.666096 12.660464 17.072274 12.578125 16.408203 C 12.522465 15.959327 12.560539 15.521319 12.667969 15.107422 C 12.664058 15.106994 12.654463 15.111635 12.650391 15.111328 C 12.749507 14.726926 12.914154 14.355863 13.146484 14.017578 C 13.262121 13.849206 13.394214 13.689208 13.542969 13.539062 C 13.542969 13.539062 13.544922 13.537109 13.544922 13.537109 C 13.54726 13.534753 13.548435 13.531648 13.550781 13.529297 C 13.55182 13.528256 13.553648 13.528383 13.554688 13.527344 C 13.555342 13.526691 13.555986 13.526042 13.556641 13.525391 C 13.556641 13.525391 13.558594 13.523438 13.558594 13.523438 C 13.876465 13.206806 14.241416 12.969638 14.630859 12.800781 C 14.629906 12.79924 14.625995 12.796474 14.625 12.794922 C 15.048056 12.611047 15.509821 12.5 16 12.5 z M 7.4453125 13.390625 C 7.4287905 13.445275 7.3846876 13.490076 7.3691406 13.544922 C 7.3688786 13.546022 7.411084 13.436296 7.4375 13.398438 C 7.44005 13.394737 7.4427025 13.394125 7.4453125 13.390625 z M 24.730469 13.796875 C 24.730159 13.795775 24.746438 13.911059 24.742188 13.957031 C 24.741733 13.961631 24.740734 13.96437 24.740234 13.96875 C 24.727634 13.91307 24.744069 13.852236 24.730469 13.796875 z M 8.7109375 21.134766 C 8.7438375 21.181426 8.7515032 21.245005 8.7851562 21.291016 C 8.7858369 21.29188 8.7245145 21.190607 8.7109375 21.146484 C 8.7095675 21.142184 8.7120701 21.138966 8.7109375 21.134766 z M 23 21.611328 C 23.000691 21.610417 22.918147 21.694433 22.878906 21.71875 C 22.875006 21.72115 22.870957 21.720456 22.867188 21.722656 C 22.904017 21.679036 22.964022 21.655544 23 21.611328 z M 15.794922 24.912109 C 15.851992 24.913609 15.907842 24.944802 15.964844 24.945312 C 15.965944 24.945283 15.84818 24.933449 15.804688 24.917969 C 15.800387 24.916469 15.798962 24.913709 15.794922 24.912109 z "
     id="path4134" />
</svg>
