<?xml version="1.0" encoding="UTF-8" standalone="no"?>
<!-- Created with Inkscape (http://www.inkscape.org/) -->

<svg
   xmlns:dc="http://purl.org/dc/elements/1.1/"
   xmlns:cc="http://creativecommons.org/ns#"
   xmlns:rdf="http://www.w3.org/1999/02/22-rdf-syntax-ns#"
   xmlns:svg="http://www.w3.org/2000/svg"
   xmlns="http://www.w3.org/2000/svg"
   xmlns:sodipodi="http://sodipodi.sourceforge.net/DTD/sodipodi-0.dtd"
   xmlns:inkscape="http://www.inkscape.org/namespaces/inkscape"
   width="32"
   height="32"
   viewBox="0 0 32 32.000001"
   id="svg2"
   version="1.1"
   inkscape:version="0.91 r13725"
   sodipodi:docname="options.svg">
  <defs
     id="defs4" />
  <sodipodi:namedview
     id="base"
     pagecolor="#ffffff"
     bordercolor="#666666"
     borderopacity="1.0"
     inkscape:pageopacity="0.0"
     inkscape:pageshadow="2"
     inkscape:zoom="18.73833"
     inkscape:cx="10.754803"
     inkscape:cy="16.704642"
     inkscape:document-units="px"
     inkscape:current-layer="svg2"
     showgrid="true"
     inkscape:window-width="1920"
     inkscape:window-height="1017"
     inkscape:window-x="1912"
     inkscape:window-y="-8"
     inkscape:window-maximized="1"
     units="px"
     inkscape:snap-grids="false">
    <inkscape:grid
       type="xygrid"
       id="grid4136" />
  </sodipodi:namedview>
  <metadata
     id="metadata7">
    <rdf:RDF>
      <cc:Work
         rdf:about="">
        <dc:format>image/svg+xml</dc:format>
        <dc:type
           rdf:resource="http://purl.org/dc/dcmitype/StillImage" />
        <dc:title></dc:title>
      </cc:Work>
    </rdf:RDF>
  </metadata>
  <g
     inkscape:label="Layer 1"
     inkscape:groupmode="layer"
     id="layer1" />
  <path
     style="color:#000000;font-style:normal;font-variant:normal;font-weight:normal;font-stretch:normal;font-size:medium;line-height:normal;font-family:sans-serif;text-indent:0;text-align:start;text-decoration:none;text-decoration-line:none;text-decoration-style:solid;text-decoration-color:#000000;letter-spacing:normal;word-spacing:normal;text-transform:none;direction:ltr;block-progression:tb;writing-mode:lr-tb;baseline-shift:baseline;text-anchor:start;white-space:normal;clip-rule:nonzero;display:inline;overflow:visible;visibility:visible;opacity:1;isolation:auto;mix-blend-mode:normal;color-interpolation:sRGB;color-interpolation-filters:linearRGB;solid-color:#000000;solid-opacity:1;fill:#000000;fill-opacity:1;fill-rule:nonzero;stroke:none;stroke-width:1;stroke-linecap:round;stroke-linejoin:round;stroke-miterlimit:4;stroke-dasharray:none;stroke-dashoffset:0;stroke-opacity:1;color-rendering:auto;image-rendering:auto;shape-rendering:auto;text-rendering:auto;enable-background:accumulate"
     d="M 14.740234 1.7441406 C 14.594144 1.7393506 14.454662 1.8056216 14.378906 1.8691406 C 14.303146 1.9326596 14.268147 1.9905064 14.242188 2.0371094 C 14.190267 2.1303154 14.175363 2.195322 14.158203 2.2636719 C 14.123903 2.4003716 14.103728 2.5427383 14.085938 2.7109375 C 14.050337 3.0473359 14.027086 3.4706402 14.003906 3.8925781 C 13.980726 4.3145161 13.958464 4.7355199 13.927734 5.0351562 C 13.918334 5.1267052 13.908297 5.1725203 13.898438 5.234375 C 13.073314 5.3955229 12.258169 5.6210235 11.482422 5.9667969 C 10.948236 5.3744037 10.429231 4.8407485 10.005859 4.4589844 C 9.7596274 4.2369507 9.5463294 4.0626751 9.359375 3.9355469 C 9.2658978 3.8719827 9.1819942 3.8192041 9.0722656 3.7753906 C 9.0174014 3.7534839 8.9567419 3.7317908 8.8613281 3.7246094 C 8.7659141 3.7174294 8.609705 3.7309194 8.4707031 3.8417969 L 5.7910156 5.9785156 C 5.6767461 6.0696623 5.6140878 6.211107 5.5976562 6.3085938 C 5.5812242 6.4060808 5.5930356 6.4711325 5.6035156 6.5234375 C 5.6244836 6.6280475 5.6542499 6.6888157 5.6855469 6.7519531 C 5.7481409 6.878228 5.8262857 6.9991354 5.921875 7.1386719 C 6.1130536 7.4177449 6.3708232 7.7556923 6.6269531 8.0917969 C 6.8830831 8.4279014 7.1375665 8.7618216 7.3085938 9.0097656 C 7.3613837 9.0862966 7.3852478 9.127951 7.4179688 9.1816406 C 6.9713409 9.7432714 6.5620132 10.3368 6.2226562 10.974609 C 5.4338611 10.843327 4.693146 10.747963 4.1230469 10.712891 C 3.7921165 10.692532 3.5164603 10.688104 3.2910156 10.705078 C 3.1782933 10.713578 3.0799329 10.723753 2.9667969 10.757812 C 2.9102289 10.774843 2.8486536 10.795799 2.7695312 10.849609 C 2.6904093 10.903419 2.5768073 11.012229 2.5371094 11.185547 L 1.7714844 14.525391 C 1.7388494 14.667872 1.7783149 14.817793 1.8261719 14.904297 C 1.8740329 14.990797 1.9240659 15.035921 1.9648438 15.070312 C 2.0464008 15.139093 2.1061136 15.167362 2.1699219 15.197266 C 2.2975384 15.257076 2.4359653 15.301928 2.5976562 15.351562 C 2.9210383 15.450833 3.3305163 15.554763 3.7402344 15.658203 C 4.1499524 15.761643 4.559428 15.865657 4.8476562 15.953125 C 4.9355282 15.979795 4.9783267 15.998051 5.0371094 16.019531 C 5.0373879 16.719936 5.0841257 17.421674 5.2089844 18.115234 C 4.5088734 18.500601 3.8695437 18.885713 3.4003906 19.210938 C 3.1279039 19.399829 2.9087225 19.565846 2.7421875 19.71875 C 2.6589205 19.7952 2.5892439 19.864145 2.5214844 19.960938 C 2.4876044 20.009338 2.450699 20.065011 2.421875 20.15625 C 2.393051 20.24749 2.3711386 20.401815 2.4472656 20.5625 L 3.9140625 23.660156 C 3.9766445 23.792252 4.1002658 23.885526 4.1914062 23.923828 C 4.2825463 23.962128 4.3490281 23.96699 4.4023438 23.96875 C 4.5089751 23.97225 4.5739548 23.955473 4.6425781 23.939453 C 4.7798248 23.907413 4.9165114 23.859953 5.0742188 23.798828 C 5.3896331 23.67658 5.7763137 23.502504 6.1621094 23.330078 C 6.547905 23.157653 6.9323902 22.986707 7.2128906 22.876953 C 7.2996616 22.843003 7.3464461 22.830127 7.40625 22.810547 C 7.9208808 23.46243 8.4863984 24.078111 9.1386719 24.605469 C 8.8543502 25.351642 8.6159751 26.058266 8.46875 26.609375 C 8.383178 26.929698 8.3249396 27.197541 8.296875 27.421875 C 8.282843 27.534042 8.2742052 27.632357 8.2851562 27.75 C 8.2906363 27.80882 8.2988895 27.874671 8.3359375 27.962891 C 8.3729865 28.051111 8.4551818 28.182583 8.6171875 28.255859 L 11.740234 29.667969 C 11.873416 29.728209 12.026817 29.721166 12.121094 29.691406 C 12.215374 29.661646 12.270705 29.621036 12.3125 29.587891 C 12.39609 29.521591 12.4346 29.466768 12.476562 29.410156 C 12.560493 29.296933 12.634133 29.172076 12.714844 29.023438 C 12.876266 28.72616 13.057608 28.343963 13.240234 27.962891 C 13.422861 27.581818 13.605164 27.202662 13.748047 26.9375 C 13.791807 26.85628 13.818788 26.817113 13.851562 26.763672 C 14.615256 26.917877 15.392288 27.01379 16.177734 27.009766 C 16.43323 27.767337 16.698381 28.464681 16.935547 28.984375 C 17.073198 29.286006 17.197365 29.531675 17.318359 29.722656 C 17.378859 29.818146 17.434317 29.900545 17.517578 29.984375 C 17.559208 30.026285 17.606718 30.070705 17.691406 30.115234 C 17.776096 30.159764 17.926029 30.208579 18.097656 30.162109 L 21.404297 29.267578 C 21.545388 29.229378 21.659054 29.123932 21.712891 29.041016 C 21.766731 28.958096 21.783752 28.893958 21.794922 28.841797 C 21.817272 28.737475 21.814157 28.669985 21.810547 28.599609 C 21.803347 28.458858 21.778324 28.31643 21.746094 28.150391 C 21.681634 27.818312 21.579894 27.406327 21.478516 26.996094 C 21.377137 26.585861 21.277094 26.178316 21.21875 25.882812 C 21.20076 25.791692 21.19618 25.743891 21.1875 25.681641 C 21.966312 25.266205 22.716389 24.790303 23.380859 24.193359 A 0.50004997 0.50004997 0 0 0 23.404297 24.169922 C 24.093506 24.569092 24.750162 24.917066 25.269531 25.150391 C 25.57197 25.28626 25.827999 25.389423 26.044922 25.453125 C 26.153383 25.484975 26.24931 25.509508 26.367188 25.517578 C 26.426127 25.521578 26.490961 25.52238 26.583984 25.5 C 26.677004 25.47759 26.8216 25.41768 26.919922 25.269531 L 28.814453 22.414062 C 28.895283 22.292275 28.910724 22.138846 28.896484 22.041016 C 28.882244 21.943186 28.852182 21.884464 28.826172 21.837891 C 28.774142 21.744741 28.726882 21.695036 28.677734 21.644531 C 28.579444 21.543523 28.467744 21.453128 28.333984 21.349609 C 28.066466 21.142572 27.719872 20.899618 27.373047 20.658203 C 27.026222 20.416788 26.680202 20.177725 26.441406 19.994141 C 26.367966 19.937681 26.332706 19.904291 26.285156 19.863281 C 26.563594 19.124297 26.785545 18.36148 26.90625 17.574219 C 27.694851 17.441436 28.426039 17.289152 28.976562 17.136719 C 29.296097 17.048239 29.557985 16.962484 29.765625 16.873047 C 29.869445 16.828327 29.9588 16.785827 30.054688 16.716797 C 30.102628 16.682277 30.155592 16.643037 30.212891 16.566406 C 30.270191 16.489776 30.341153 16.350629 30.322266 16.173828 L 29.958984 12.765625 C 29.943464 12.620281 29.858569 12.491995 29.785156 12.425781 C 29.711746 12.359571 29.649362 12.333701 29.599609 12.314453 C 29.500099 12.275963 29.433349 12.269219 29.363281 12.261719 C 29.223146 12.246709 29.079198 12.246283 28.910156 12.251953 C 28.572072 12.263353 28.14959 12.300367 27.728516 12.335938 C 27.307441 12.371507 26.886941 12.406849 26.585938 12.417969 C 26.493317 12.421369 26.445604 12.417277 26.382812 12.416016 C 26.095123 11.581809 25.744574 10.76552 25.259766 10.015625 A 0.50004997 0.50004997 0 0 0 25.228516 9.9726562 C 25.730639 9.3538286 26.176996 8.758177 26.488281 8.28125 C 26.6695 8.0036007 26.809611 7.7668878 26.90625 7.5625 C 26.95457 7.4603061 26.99324 7.3690968 27.019531 7.2539062 C 27.032671 7.1963112 27.044789 7.1324851 27.037109 7.0371094 C 27.029409 6.9417334 26.992399 6.7900735 26.861328 6.6699219 L 24.333984 4.3535156 C 24.22624 4.2547415 24.077371 4.2140255 23.978516 4.2128906 C 23.879656 4.2117606 23.815675 4.2334941 23.765625 4.2519531 C 23.665525 4.2888701 23.610263 4.3284431 23.552734 4.3691406 C 23.437677 4.4505366 23.332033 4.5460625 23.208984 4.6621094 C 22.962888 4.8942032 22.669334 5.2007651 22.376953 5.5058594 C 22.084573 5.8109536 21.792683 6.1149013 21.574219 6.3222656 C 21.507209 6.3858746 21.46972 6.4145096 21.421875 6.4550781 C 20.681157 6.0346247 19.904122 5.6704367 19.078125 5.4277344 C 19.0556 4.6304085 19.006106 3.8875354 18.931641 3.3222656 C 18.888337 2.9935495 18.841025 2.7219442 18.78125 2.5039062 C 18.751363 2.3948874 18.721084 2.3018004 18.666016 2.1972656 C 18.638481 2.1449983 18.607007 2.0869039 18.539062 2.0195312 C 18.471118 1.9521588 18.343726 1.861287 18.166016 1.8554688 L 14.740234 1.7441406 z M 15.089844 2.7539062 L 17.830078 2.8457031 C 17.865338 2.9895745 17.904228 3.1857501 17.939453 3.453125 C 18.018953 4.0565922 18.081637 4.9045692 18.09375 5.8203125 A 0.50004997 0.50004997 0 0 0 18.607422 6.3144531 A 0.50021542 0.50021542 0 0 0 18.71875 6.3613281 C 19.594522 6.6079281 20.428268 6.9709387 21.197266 7.4375 C 21.444916 7.5877528 21.626008 7.5026387 21.714844 7.4648438 C 21.803684 7.4270477 21.857232 7.3890968 21.914062 7.3476562 C 22.027726 7.2647743 22.137295 7.1649768 22.261719 7.046875 C 22.510566 6.8106714 22.805474 6.5021534 23.097656 6.1972656 C 23.389839 5.8923779 23.680794 5.5922005 23.894531 5.390625 C 23.915801 5.370563 23.921636 5.3675834 23.941406 5.3496094 L 25.962891 7.2011719 C 25.896041 7.3333407 25.798297 7.5077654 25.650391 7.734375 C 25.317703 8.2440922 24.809852 8.9280554 24.222656 9.6308594 A 0.50004997 0.50004997 0 0 0 24.347656 10.392578 A 0.50004997 0.50004997 0 0 0 24.419922 10.558594 C 24.913887 11.322652 25.297981 12.147382 25.566406 13.005859 C 25.652846 13.282327 25.84391 13.336804 25.935547 13.367188 C 26.027187 13.397567 26.094026 13.405619 26.164062 13.412109 C 26.304136 13.425089 26.451614 13.422356 26.623047 13.416016 C 26.965912 13.403346 27.39171 13.367581 27.8125 13.332031 C 28.23329 13.296491 28.64973 13.261863 28.943359 13.251953 C 28.972719 13.250963 28.979029 13.252362 29.005859 13.251953 L 29.296875 15.980469 C 29.159301 16.035369 28.971133 16.09983 28.710938 16.171875 C 28.124327 16.334301 27.291932 16.513341 26.386719 16.652344 A 0.50004997 0.50004997 0 0 0 25.951172 17.216797 C 25.841775 18.106974 25.615916 18.974381 25.279297 19.794922 C 25.169355 20.062914 25.282794 20.226711 25.333984 20.308594 C 25.385124 20.390474 25.430704 20.43858 25.480469 20.488281 C 25.580009 20.587681 25.696028 20.680598 25.832031 20.785156 C 26.104037 20.994273 26.454191 21.239217 26.800781 21.480469 C 27.147372 21.72172 27.490313 21.960811 27.722656 22.140625 C 27.745276 22.158135 27.749111 22.163288 27.769531 22.179688 L 26.253906 24.462891 C 26.112962 24.417354 25.926134 24.348997 25.679688 24.238281 C 25.124461 23.988848 24.369503 23.595843 23.583984 23.125 A 0.50004997 0.50004997 0 0 0 22.847656 23.361328 A 0.50004997 0.50004997 0 0 0 22.712891 23.449219 C 22.036074 24.057254 21.282111 24.566635 20.476562 24.966797 C 20.217142 25.095667 20.19332 25.293396 20.177734 25.388672 C 20.162144 25.483952 20.165292 25.550909 20.169922 25.621094 C 20.179122 25.761463 20.203098 25.907871 20.236328 26.076172 C 20.302788 26.412773 20.406503 26.826373 20.507812 27.236328 C 20.609123 27.646284 20.709643 28.05143 20.765625 28.339844 C 20.771125 28.368024 20.770791 28.374501 20.775391 28.400391 L 18.128906 29.117188 C 18.053046 28.989961 17.955819 28.815888 17.84375 28.570312 C 17.591045 28.016569 17.285564 27.221675 17.005859 26.349609 A 0.50061861 0.50061861 0 0 0 16.449219 26.009766 C 15.540222 26.048646 14.633975 25.963176 13.757812 25.759766 C 13.475651 25.694256 13.332381 25.830916 13.259766 25.894531 C 13.187146 25.958151 13.146539 26.013212 13.105469 26.070312 C 13.023329 26.184514 12.950518 26.311871 12.869141 26.462891 C 12.706387 26.764931 12.522347 27.150435 12.339844 27.53125 C 12.157341 27.912065 11.976134 28.288686 11.835938 28.546875 C 11.822278 28.572035 11.817608 28.576799 11.804688 28.599609 L 9.3046875 27.470703 C 9.3270045 27.324276 9.3657825 27.128336 9.4355469 26.867188 C 9.592643 26.279128 9.8605396 25.470039 10.199219 24.619141 A 0.50004997 0.50004997 0 0 0 9.9335938 23.96875 A 0.50004997 0.50004997 0 0 0 9.8710938 23.916016 C 9.1528098 23.357575 8.518917 22.706323 7.9824219 21.984375 C 7.8096499 21.751874 7.6102022 21.764092 7.5136719 21.765625 C 7.4171419 21.767125 7.3514615 21.781858 7.2832031 21.798828 C 7.1466863 21.832768 7.007412 21.882809 6.8476562 21.945312 C 6.5281449 22.070331 6.1394411 22.24566 5.7539062 22.417969 C 5.3683715 22.590278 4.9868318 22.759061 4.7128906 22.865234 C 4.6859296 22.875684 4.6791349 22.875656 4.6542969 22.884766 L 3.4804688 20.40625 C 3.5922745 20.30908 3.7471738 20.18485 3.96875 20.03125 C 4.3897549 19.739402 4.9904418 19.378341 5.6464844 19.015625 A 0.50004997 0.50004997 0 0 0 6.2910156 18.416016 C 6.27873 18.366318 6.2751735 18.315457 6.2636719 18.265625 C 6.0707654 17.429838 5.9797028 16.577023 6.0039062 15.728516 C 6.012169 15.438968 5.8482396 15.324184 5.7714844 15.265625 C 5.6947292 15.207066 5.6344226 15.179323 5.5703125 15.150391 C 5.4420923 15.092525 5.3008758 15.04591 5.1367188 14.996094 C 4.8084043 14.89646 4.3957691 14.792823 3.9863281 14.689453 C 3.5768871 14.586083 3.1714861 14.482703 2.890625 14.396484 C 2.862645 14.387884 2.8574502 14.38331 2.8320312 14.375 L 3.4433594 11.703125 C 3.5913085 11.696025 3.7909075 11.694337 4.0605469 11.710938 C 4.5809772 11.74295 5.2915284 11.833815 6.046875 11.958984 A 0.50004997 0.50004997 0 0 0 6.9042969 11.835938 C 6.9111308 11.821036 6.9208287 11.807831 6.9277344 11.792969 C 6.9287239 11.790839 6.9306496 11.789238 6.9316406 11.787109 A 0.50014589 0.50014589 0 0 0 6.9648438 11.726562 C 7.3363259 10.942939 7.8001783 10.210508 8.3535156 9.5546875 C 8.540311 9.3332958 8.4825652 9.1424459 8.4589844 9.0488281 C 8.4354035 8.9552103 8.4071388 8.8945954 8.375 8.8320312 C 8.3107224 8.7069031 8.2302189 8.5826198 8.1328125 8.4414062 C 7.9379996 8.1589794 7.6778316 7.820252 7.421875 7.484375 C 7.1659184 7.148498 6.9140872 6.8165961 6.7480469 6.5742188 C 6.7310917 6.5494684 6.7298665 6.5423736 6.7148438 6.5195312 L 8.8574219 4.8105469 C 8.9776327 4.8970804 9.1351492 5.0220693 9.3359375 5.203125 C 9.7879785 5.6107413 10.384901 6.2172911 10.988281 6.90625 A 0.50030978 0.50030978 0 0 0 11.685547 6.9570312 A 0.50070235 0.50070235 0 0 0 11.787109 6.9238281 C 12.612293 6.5406053 13.48173 6.2737199 14.369141 6.1269531 C 14.654926 6.0796881 14.736498 5.8970837 14.779297 5.8105469 C 14.822097 5.7240099 14.837376 5.6602566 14.853516 5.5917969 C 14.885796 5.4548775 14.904365 5.3073728 14.921875 5.1367188 C 14.956885 4.7954104 14.980746 4.3689179 15.003906 3.9472656 C 15.027066 3.5256133 15.049158 3.1085713 15.080078 2.8164062 C 15.083178 2.7869833 15.086444 2.7807033 15.089844 2.7539062 z M 16 11 C 13.244499 11 11 13.244499 11 16 C 11 18.755501 13.244499 21 16 21 C 18.755501 21 21 18.755501 21 16 C 21 13.244499 18.755501 11 16 11 z M 16 12 C 18.215061 12 20 13.784939 20 16 C 20 18.215061 18.215061 20 16 20 C 13.784939 20 12 18.215061 12 16 C 12 13.784939 13.784939 12 16 12 z "
     id="path4134" />
</svg>
